<svg width="121" height="20" viewBox="0 0 121 20" fill="none" xmlns="http://www.w3.org/2000/svg">
<path d="M6.184 16V6.24H3V4.56H11.512V6.24H8.328V16H6.184Z" fill="#333333"/>
<path d="M14.3441 16V4.56H18.1841C19.4961 4.56 20.5361 4.83733 21.3041 5.392C22.0721 5.94667 22.4561 6.78933 22.4561 7.92V7.984C22.4561 9.59467 21.6081 10.6187 19.9121 11.056L23.1281 16H20.8241L17.8321 11.376H16.4721V16H14.3441ZM16.4721 9.856H18.1841C19.6348 9.856 20.3601 9.248 20.3601 8.032V7.968C20.3601 7.33867 20.1735 6.89067 19.8001 6.624C19.4375 6.34667 18.8988 6.208 18.1841 6.208H16.4721V9.856Z" fill="#333333"/>
<path d="M26.0125 16V4.56H28.1565V16H26.0125Z" fill="#333333"/>
<path d="M31.9748 16V4.56H34.5188L39.3348 12.832V4.56H41.2708V16H39.0628L33.9108 7.232V16H31.9748Z" fill="#333333"/>
<path d="M45.0806 16V4.56H47.2246V16H45.0806Z" fill="#333333"/>
<path d="M53.3309 16V6.24H50.1469V4.56H58.6589V6.24H55.4749V16H53.3309Z" fill="#333333"/>
<path d="M64.3992 16V11.04L60.6073 4.56H62.9593L65.5352 9.296L68.0472 4.56H70.1273L66.5433 11.056V16H64.3992Z" fill="#333333"/>
<path d="M73.584 2C73.584 0.895431 74.4794 0 75.584 0H118.584C119.689 0 120.584 0.895431 120.584 2V18C120.584 19.1046 119.689 20 118.584 20H75.584C74.4794 20 73.584 19.1046 73.584 18V2Z" fill="#333333"/>
<path d="M81.848 16L79 4.56H81.176L83.16 12.96L85.384 4.56H87.144L89.416 13.008L91.464 4.56H93.448L90.584 16H88.456L86.2 7.664L83.88 16H81.848Z" fill="white"/>
<path d="M96.2972 16V4.56H103.449V6.24H98.4252V9.376H102.457V10.976H98.4252V14.32H103.721V16H96.2972Z" fill="white"/>
<path d="M106.761 16V4.56H110.857C113.353 4.56 114.601 5.552 114.601 7.536V7.6C114.601 8.848 113.998 9.65867 112.793 10.032C113.572 10.2027 114.148 10.5067 114.521 10.944C114.894 11.3813 115.081 11.9787 115.081 12.736V12.8C115.081 13.856 114.745 14.656 114.073 15.2C113.401 15.7333 112.43 16 111.161 16H106.761ZM108.841 14.48H110.905C112.292 14.48 112.985 13.872 112.985 12.656V12.592C112.985 11.9947 112.804 11.552 112.441 11.264C112.089 10.9653 111.529 10.816 110.761 10.816H108.841V14.48ZM108.841 9.376H110.601C111.294 9.376 111.79 9.24267 112.089 8.976C112.398 8.70933 112.553 8.28267 112.553 7.696V7.632C112.553 7.088 112.393 6.69333 112.073 6.448C111.753 6.20267 111.252 6.08 110.569 6.08H108.841V9.376Z" fill="white"/>
<path d="M119 19V20H2V19H119ZM120 18V2C120 1.44772 119.552 1 119 1H2C1.44772 1 1 1.44772 1 2V18C1 18.5523 1.44772 19 2 19V20L1.7959 19.9893C0.787222 19.887 0 19.0357 0 18V2C2.41627e-07 0.96435 0.787223 0.113005 1.7959 0.0107422L2 0H119C120.105 0 121 0.895431 121 2V18C121 19.1046 120.105 20 119 20V19C119.552 19 120 18.5523 120 18Z" fill="#333333"/>
</svg>
