<svg width="118" height="20" viewBox="0 0 118 20" fill="none" xmlns="http://www.w3.org/2000/svg">
<path d="M3.184 16V6.24H0V4.56H8.512V6.24H5.328V16H3.184Z" fill="#333333"/>
<path d="M11.3441 16V4.56H15.1841C16.4961 4.56 17.5361 4.83733 18.3041 5.392C19.0721 5.94667 19.4561 6.78933 19.4561 7.92V7.984C19.4561 9.59467 18.6081 10.6187 16.9121 11.056L20.1281 16H17.8241L14.8321 11.376H13.4721V16H11.3441ZM13.4721 9.856H15.1841C16.6348 9.856 17.3601 9.248 17.3601 8.032V7.968C17.3601 7.33867 17.1735 6.89067 16.8001 6.624C16.4375 6.34667 15.8988 6.208 15.1841 6.208H13.4721V9.856Z" fill="#333333"/>
<path d="M23.0125 16V4.56H25.1565V16H23.0125Z" fill="#333333"/>
<path d="M28.9748 16V4.56H31.5188L36.3348 12.832V4.56H38.2708V16H36.0628L30.9108 7.232V16H28.9748Z" fill="#333333"/>
<path d="M42.0806 16V4.56H44.2246V16H42.0806Z" fill="#333333"/>
<path d="M50.3309 16V6.24H47.1469V4.56H55.6589V6.24H52.4749V16H50.3309Z" fill="#333333"/>
<path d="M61.3993 16V11.04L57.6073 4.56H59.9593L62.5353 9.296L65.0472 4.56H67.1273L63.5433 11.056V16H61.3993Z" fill="#333333"/>
<path d="M70.584 2C70.584 0.895431 71.4794 0 72.584 0H115.584C116.689 0 117.584 0.895431 117.584 2V18C117.584 19.1046 116.689 20 115.584 20H72.584C71.4794 20 70.584 19.1046 70.584 18V2Z" fill="#333333"/>
<path d="M78.848 16L76 4.56H78.176L80.16 12.96L82.384 4.56H84.144L86.416 13.008L88.464 4.56H90.448L87.584 16H85.456L83.2 7.664L80.88 16H78.848Z" fill="white"/>
<path d="M93.2972 16V4.56H100.449V6.24H95.4252V9.376H99.4573V10.976H95.4252V14.32H100.721V16H93.2972Z" fill="white"/>
<path d="M103.761 16V4.56H107.857C110.353 4.56 111.601 5.552 111.601 7.536V7.6C111.601 8.848 110.998 9.65867 109.793 10.032C110.572 10.2027 111.148 10.5067 111.521 10.944C111.894 11.3813 112.081 11.9787 112.081 12.736V12.8C112.081 13.856 111.745 14.656 111.073 15.2C110.401 15.7333 109.43 16 108.161 16H103.761ZM105.841 14.48H107.905C109.292 14.48 109.985 13.872 109.985 12.656V12.592C109.985 11.9947 109.804 11.552 109.441 11.264C109.089 10.9653 108.529 10.816 107.761 10.816H105.841V14.48ZM105.841 9.376H107.601C108.294 9.376 108.79 9.24267 109.089 8.976C109.398 8.70933 109.553 8.28267 109.553 7.696V7.632C109.553 7.088 109.393 6.69333 109.073 6.448C108.753 6.20267 108.252 6.08 107.569 6.08H105.841V9.376Z" fill="white"/>
</svg>
