<svg width="322" height="648" viewBox="0 0 322 648" fill="none" xmlns="http://www.w3.org/2000/svg">
<path d="M268.557 0H53.4386C25.0099 0 1.9657 23.0542 1.9657 51.4927V596.509C1.9657 624.948 25.0119 648.002 53.4406 648.002H268.557C296.986 648.002 320.032 624.948 320.032 596.509V51.4927C320.03 23.0542 296.986 0 268.557 0ZM315.433 595.89C315.433 622.488 293.879 644.05 267.29 644.05H54.7064C28.1172 644.05 6.5635 622.488 6.5635 595.89V52.1101C6.5635 25.5117 28.1172 3.95051 54.7064 3.95051H267.29C293.879 3.95051 315.433 25.5117 315.433 52.1101V595.89Z" fill="#C6C6C6"/>
<path d="M267.29 3.95051H54.7064C28.1172 3.95051 6.5635 25.5117 6.5635 52.1101V595.89C6.5635 622.488 28.1172 644.05 54.7064 644.05H267.29C293.879 644.05 315.433 622.488 315.433 595.89V52.1101C315.433 25.5117 293.879 3.95051 267.29 3.95051ZM307.219 594.553C307.219 617.031 289.003 635.255 266.531 635.255H55.4654C32.9949 635.255 14.7772 617.033 14.7772 594.553V53.4473C14.7772 30.969 32.993 12.745 55.4654 12.745H266.531C289.001 12.745 307.219 30.967 307.219 53.4473V594.553Z" fill="#E0E0E0"/>
<path d="M266.531 12.747H55.4654C32.995 12.747 14.7772 30.969 14.7772 53.4492V594.553C14.7772 617.031 32.993 635.255 55.4654 635.255H266.531C289.001 635.255 307.219 617.033 307.219 594.553V53.4473C307.219 30.969 289.003 12.745 266.531 12.745L266.531 12.747ZM306.631 595.018C306.631 617.019 288.802 634.853 266.811 634.853H55.1855C33.1921 634.853 15.3648 617.017 15.3648 595.018V52.9818C15.3648 30.9808 33.1941 13.1473 55.1855 13.1473H266.809C288.802 13.1473 306.629 30.9828 306.629 52.9818V595.018H306.631Z" fill="url(#paint0_linear_202_77)"/>
<path d="M192.26 26.7483H129.736C124.083 26.7483 119.5 31.333 119.5 36.9884C119.5 42.6439 124.083 47.2286 129.736 47.2286H192.26C197.913 47.2286 202.497 42.6439 202.497 36.9884C202.497 31.333 197.913 26.7483 192.26 26.7483Z" fill="#C6C6C6"/>
<path d="M192.739 41.6269C195.305 41.207 197.045 38.7855 196.625 36.2185C196.205 33.6514 193.785 31.9108 191.219 32.3307C188.652 32.7506 186.912 35.1721 187.332 37.7391C187.752 40.3062 190.173 42.0468 192.739 41.6269Z" fill="#999999"/>
<path d="M1.9657 130.899L0.871453 130.71C0.370663 130.623 0 130.12 0 129.527V108.798C0 108.204 0.370663 107.701 0.871453 107.614L1.9657 107.425V130.899Z" fill="#AFAFAF"/>
<path d="M1.9657 198.831L0.871453 198.642C0.370663 198.555 0 198.052 0 197.458V154.946C0 154.352 0.370663 153.849 0.871453 153.762L1.9657 153.573V198.831Z" fill="#AFAFAF"/>
<path d="M1.9657 250.748L0.871453 250.559C0.370663 250.472 0 249.969 0 249.375V206.862C0 206.269 0.370663 205.766 0.871453 205.679L1.9657 205.49V250.748Z" fill="#AFAFAF"/>
<path d="M320.03 238.291L321.125 238.102C321.625 238.015 321.996 237.512 321.996 236.918V165.237C321.996 164.643 321.625 164.14 321.125 164.054L320.03 163.864V238.291Z" fill="#AFAFAF"/>
<path d="M6.56547 61.2694H1.9657V65.2751H6.56547V61.2694Z" fill="#A3A3A3"/>
<path d="M70.221 3.95051V0H66.2166V3.95051H70.221Z" fill="#A3A3A3"/>
<path d="M315.431 65.2751H320.03V61.2694H315.431V65.2751Z" fill="#A3A3A3"/>
<path d="M255.779 3.95052V4.81518e-06H251.775V3.95052H255.779Z" fill="#A3A3A3"/>
<path d="M315.431 586.677H320.03V582.672H315.431V586.677Z" fill="#A3A3A3"/>
<path d="M251.775 644.049V648H255.779V644.049H251.775Z" fill="#A3A3A3"/>
<path d="M6.56547 582.672H1.9657V586.677H6.56547V582.672Z" fill="#A3A3A3"/>
<path d="M66.2147 644.049V648H70.219V644.049H66.2147Z" fill="#A3A3A3"/>
<defs>
<linearGradient id="paint0_linear_202_77" x1="160.998" y1="648.002" x2="160.998" y2="0.00208569" gradientUnits="userSpaceOnUse">
<stop stop-color="#AAAAAA"/>
<stop offset="0.5" stop-color="white"/>
<stop offset="1" stop-color="#AAAAAA"/>
</linearGradient>
</defs>
</svg>
