<svg display="none" xmlns="http://www.w3.org/2000/svg">
    <symbol id="arrow" viewBox="0 0 12 11">
        <path d="M5.90039 0.165362C6.14026 -0.0628819 6.51955 -0.0537251 6.74805 0.18587L11.0342 4.68587C11.2549 4.91759 11.2549 5.28227 11.0342 5.51399L6.74805 10.014C6.51955 10.2536 6.14026 10.2627 5.90039 10.0345C5.66043 9.80597 5.65135 9.42583 5.87988 9.18587L9.2002 5.69954H0.599609C0.268239 5.69954 2.57866e-07 5.4313 0 5.09993C0 4.76856 0.268239 4.50032 0.599609 4.50032H9.2002L5.87988 1.01399C5.65135 0.774036 5.66043 0.393893 5.90039 0.165362Z" fill="white"/>
    </symbol>
    <symbol id="slide-arrow" viewBox="0 0 8 13">
        <path d="M8.29697e-05 1.05997L1.06108 -2.86102e-05L6.84008 5.77697C6.93324 5.86954 7.00717 5.97961 7.05761 6.10086C7.10806 6.22211 7.13403 6.35214 7.13403 6.48347C7.13403 6.6148 7.10806 6.74483 7.05761 6.86608C7.00717 6.98733 6.93324 7.0974 6.84008 7.18997L1.06108 12.97L0.0010829 11.91L5.42508 6.48497L8.29697e-05 1.05997Z"/>
    </symbol>
</svg>